# AST/ASF file generated using VICON BodyLanguage
# -----------------------------------------------
:version 1.10
:name VICON
:units
  mass 1.0
  length 0.45
  angle deg
:documentation
   .ast/.asf automatically generated from VICON data using
   VICON BodyBuilder and BodyLanguage model FoxedUp or BRILLIANT.MOD
:root
   order TX TY TZ RX RY RZ
   axis XYZ
   position 0 0 0  
   orientation 0 0 0 
:bonedata
  begin
     id 1 
     name lhipjoint
     direction 0.621036 -0.695554 0.361275 
     length 2.46325 
     axis 0 0 0  XYZ
  end
  begin
     id 2 
     name lfemur
     direction 0.34202 -0.939693 0  
     length 6.54784  
     axis 0 0 20  XYZ
    dof rx ry rz
    limits (-160.0 20.0)
           (-70.0 70.0)
           (-60.0 70.0)
  end
  begin
     id 3 
     name ltibia
     direction 0.34202 -0.939693 0   
     length 7.84737   
     axis 0 0 20   XYZ
    dof rx
    limits (-10.0 170.0)
  end
  begin
     id 4 
     name lfoot
     direction 0.0790693 -0.217241 0.97291   
     length 2.59747   
     axis -90 7.62852e-016 20   XYZ
    dof rx rz
    limits (-45.0 90.0)
           (-70.0 20.0)
  end
  begin
     id 5 
     name ltoes
     direction 1.53572e-011 -4.21898e-011 1   
     length 1.29919   
     axis -90 7.62852e-016 20   XYZ
    dof rx
    limits (-90.0 20.0)
  end
  begin
     id 6 
     name rhipjoint
     direction -0.602353 -0.708375 0.367935   
     length 2.41867  
     axis 0 0 0  XYZ 
  end
  begin
     id 7 
     name rfemur
     direction -0.34202 -0.939693 0   
     length 6.92065   
     axis 0 0 -20   XYZ
    dof rx ry rz
    limits (-160.0 20.0)
           (-70.0 70.0)
           (-70.0 60.0)
  end
  begin
     id 8 
     name rtibia
     direction -0.34202 -0.939693 0   
     length 7.88883   
     axis 0 0 -20   XYZ
    dof rx
    limits (-10.0 170.0)
 end
 begin
     id 9 
     name rfoot
     direction -0.0768692 -0.211196 0.974416   
     length 2.43714  
     axis -90 -7.62852e-016 -20   XYZ
    dof rx rz
    limits (-45.0 90.0)
           (-20.0 70.0)
  end
  begin
     id 10 
     name rtoes
     direction -1.53575e-011 -4.21933e-011 1   
     length 1.22113   
     axis -90 -7.62852e-016 -20   XYZ
    dof rx
    limits (-90.0 20.0)
  end
  begin
     id 11 
     name lowerback
     direction 0.0197937 0.98943 -0.143655   
     length 2.16931   
     axis 0 0 0   XYZ
    dof rx ry rz
    limits (-20.0 45.0)
           (-30.0 30.0)
           (-30.0 30.0)
  end
  begin
     id 12 
     name upperback
     direction -0.00183968 0.999975 0.00684288   
     length 2.17221   
     axis 0 0 0   XYZ
    dof rx ry rz
    limits (-20.0 45.0)
           (-30.0 30.0)
           (-30.0 30.0)
  end
  begin
     id 13 
     name thorax
     direction -0.00950244 0.997208 0.0740685   
     length 2.22549   
     axis 0 0 0   XYZ
    dof rx ry rz
    limits (-20.0 45.0)
           (-30.0 30.0)
           (-30.0 30.0)
  end
  begin
     id 14 
     name lowerneck
     direction 0.0218238 0.996215 0.0841425   
     length 1.77269   
     axis 0 0 0   XYZ
    dof rx ry rz
    limits (-20.0 45.0)
           (-30.0 30.0)
           (-30.0 30.0)
  end
  begin
     id 15 
     name upperneck
     direction -0.00430652 0.994214 -0.107332   
     length 1.76534   
     axis 0 0 0   XYZ
    dof rx ry rz
    limits (-20.0 45.0)
           (-30.0 30.0)
           (-30.0 30.0)
  end
  begin
     id 16
     name head
     direction -0.00328946 0.998959 -0.0454998  
     length 1.82634  
     axis 0 0 0   XYZ
    dof rx ry rz
    limits (-20.0 45.0)
           (-30.0 30.0)
           (-30.0 30.0)
  end
  begin
     id 17 
     name lclavicle
     direction 0.970962 0.239191 0.00450212  
     length 3.84872  
     axis 0 0 0   XYZ
    dof ry rz
    limits (-20.0 10.0)
           (0.0 20.0)
  end
  begin
     id 18 
     name lhumerus
     direction 1 -4.48966e-011 5.74696e-028   
     length 5.22771   
     axis 180 -30 -90   XYZ
    dof rx ry rz
    limits (-60.0 90.0)
           (-90.0 90.0)
           (-90.0 90.0)
  end
  begin
     id 19
     name lradius
     direction 1 -4.4896e-011 4.25109e-027   
     length 3.45251   
     axis 180 -30 -90   XYZ
    dof rx
    limits (-10.0 170.0)
  end
  begin
     id 20
     name lwrist
     direction 1 -4.48971e-011 1.15382e-027   
     length 1.72626   
     axis -5.52449e-016 90 90   XYZ
    dof ry
    limits (-180.0 0.0)
 end
  begin
     id 21 
     name lhand
     direction 1 -4.49034e-011 2.30765e-027   
     length 0.552119   
     axis -1.47248e-015 90 90   XYZ
    dof rx rz
    limits (-90.0 90.0)
           (-45.0 45.0)
  end
  begin
     id 22 
     name lfingers
     direction 1 -4.48951e-011 4.61529e-027   
     length 0.445133   
     axis -2.94495e-015 90 90   XYZ
    dof rx
    limits (0.0 90.0)
  end
  begin
     id 23
     name lthumb
     direction 0.707107 -6.34991e-011 0.707107   
     length 0.639124   
     axis -90 45 2.85299e-015   XYZ
    dof rx rz
    limits (-45.0 45.0)
           (-45.0 45.0)
  end
  begin
     id 24 
     name rclavicle
     direction -0.97424 0.222511 -0.0366699   
     length 3.73439  
     axis 0 0 0   XYZ 
    dof ry rz
    limits (-10.0 20.0)
           (-20.0 0.0)
  end
  begin
     id 25 
     name rhumerus
     direction -1 -4.48956e-011 -4.97258e-028  
     length 5.2398   
     axis 180 30 90   XYZ
    dof rx ry rz
    limits (-90.0 60.0)
           (-90.0 90.0)
           (-90.0 90.0)
  end
  begin
     id 26 
     name rradius
     direction -1 -4.4897e-011 -1.72611e-027   
     length 3.48042   
     axis 180 30 90   XYZ
    dof rx
    limits (-10.0 170.0)
  end
  begin
     id 27 
     name rwrist
     direction -1 -4.48976e-011 1.15382e-027   
     length 1.74021   
     axis -5.52449e-016 -90 -90   XYZ
    dof ry
    limits (-180.0 0.0)
  end
  begin
     id 28
     name rhand
     direction -1 -4.48963e-011 2.30765e-027   
     length 0.618713   
     axis -1.47248e-015 -90 -90   XYZ
    dof rx rz
    limits (-90.0 90.0)
           (-45.0 45.0)
  end
  begin
     id 29
     name rfingers
     direction -1 -4.4888e-011 4.61529e-027   
     length 0.498823   
     axis -2.94495e-015 -90 -90   XYZ
    dof rx
    limits (0.0 90.0)
  end
  begin
     id 30
     name rthumb
     direction -0.707107 -6.34968e-011 0.707107   
     length 0.716213   
     axis -90 -45 -2.85299e-015   XYZ
    dof rx rz
    limits (-45.0 45.0)
           (-45.0 45.0)
  end
:hierarchy
  begin
    root lhipjoint rhipjoint lowerback
    lhipjoint lfemur
    lfemur ltibia
    ltibia lfoot
    lfoot ltoes
    rhipjoint rfemur
    rfemur rtibia
    rtibia rfoot
    rfoot rtoes
    lowerback upperback
    upperback thorax
    thorax lowerneck lclavicle rclavicle
    lowerneck upperneck
    upperneck head
    lclavicle lhumerus
    lhumerus lradius
    lradius lwrist
    lwrist lhand lthumb
    lhand lfingers
    rclavicle rhumerus
    rhumerus rradius
    rradius rwrist
    rwrist rhand rthumb
    rhand rfingers
  end

#!OML:ASF G:\JayActor3\Patient Classification 1\Patient 1\Session 5\male.ASF
:FULLY-SPECIFIED
:DEGREES
279
root -29.0579 17.7161 -6.78032 -112.688 84.0662 -112.403
lowerback 0.476544 -1.98904 4.72937
upperback 0.0164125 -2.60784 0.96268
thorax -0.41675 -1.30507 -1.63295
lowerneck -6.30548 -0.532377 0.0596755
upperneck 8.79542 -0.957672 2.92501
head 4.02111 -0.314567 0.91464
rclavicle -3.7311e-015 3.77691e-015
rhumerus -32.9608 -13.478 -80.3394
rradius 21.8528
rwrist 5.96086
rhand -19.7423 -7.6495
rfingers 7.12502
rthumb 6.58856 -37.527
lclavicle -3.7311e-015 3.77691e-015
lhumerus -34.1103 15.7659 78.667
lradius 21.2577
lwrist 14.5101
lhand -17.9517 11.8271
lfingers 7.12502
lthumb 8.31693 41.6434
rfemur -13.1281 2.52129 30.9089
rtibia 33.3883
rfoot -0.405854 -3.02671
rtoes -9.35972
lfemur 5.88418 5.70016 -11.2022
ltibia 42.9217
lfoot 28.3407 -3.07355
ltoes -7.14808
280
root -28.9727 17.7119 -6.78108 -112.64 83.9496 -112.168
lowerback 0.61826 -1.99217 4.92515
upperback 0.0715202 -2.60299 0.970274
thorax -0.447659 -1.30234 -1.72998
lowerneck -6.24938 -0.543211 0.0466628
upperneck 8.72691 -0.971551 2.9536
head 3.98617 -0.321829 0.925176
rclavicle -1.78192e-014 -7.7526e-015
rhumerus -32.8844 -13.061 -80.6141
rradius 22.2155
rwrist 5.27637
rhand -19.772 -7.67155
rfingers 7.12502
rthumb 6.55989 -37.55
lclavicle -1.78192e-014 -7.7526e-015
lhumerus -33.9785 15.7756 78.6644
lradius 21.1563
lwrist 14.3973
lhand -17.9459 11.839
lfingers 7.12502
lthumb 8.32255 41.6551
rfemur -12.5564 2.36563 31.0996
rtibia 33.316
rfoot -0.502929 -2.98876
rtoes -10.132
lfemur 4.82757 5.52185 -11.0356
ltibia 44.3445
lfoot 26.2011 -3.18457
ltoes -8.34274
281
root -28.8885 17.7075 -6.78168 -112.661 83.833 -111.989
lowerback 0.763493 -1.99381 5.11054
upperback 0.14485 -2.59607 0.979491
thorax -0.461056 -1.2978 -1.81991
lowerneck -6.21153 -0.559547 0.0338936
upperneck 8.64326 -0.992387 2.97573
head 3.9496 -0.33302 0.933041
rclavicle 6.26016e-015 7.55382e-015
rhumerus -32.8042 -12.6504 -80.8779
rradius 22.5739
rwrist 4.64402
rhand -19.8054 -7.70953
rfingers 7.12502
rthumb 6.52772 -37.5889
lclavicle 6.26016e-015 7.55382e-015
lhumerus -33.8145 15.7902 78.6755
lradius 21.0576
lwrist 14.2653
lhand -17.9595 11.8279
lfingers 7.12502
lthumb 8.30943 41.6444
rfemur -11.971 2.2435 31.2848
rtibia 33.2278
rfoot -0.604908 -2.98012
rtoes -10.7776
lfemur 3.78296 5.32348 -10.8804
ltibia 45.6576
lfoot 24.0139 -3.2268
ltoes -9.6466
282
root -28.8059 17.7031 -6.78212 -112.686 83.7068 -111.816
lowerback 0.913438 -1.99578 5.29899
upperback 0.228795 -2.58894 0.992993
thorax -0.466013 -1.2926 -1.90723
lowerneck -6.19623 -0.575454 0.0199405
upperneck 8.55333 -1.01274 2.99685
head 3.91533 -0.34407 0.940805
rclavicle -8.53881e-015 6.95746e-015
rhumerus -32.7196 -12.248 -81.1308
rradius 22.92
rwrist 4.08774
rhand -19.844 -7.7573
rfingers 7.12502
rthumb 6.49038 -37.6379
lclavicle -8.53881e-015 6.95746e-015
lhumerus -33.6263 15.8216 78.6911
lradius 20.9617
lwrist 14.1212
lhand -17.9963 11.8106
lfingers 7.12502
lthumb 8.27395 41.6286
rfemur -11.3868 2.15124 31.4751
rtibia 33.1226
rfoot -0.699627 -2.99235
rtoes -11.3034
lfemur 2.7308 5.11035 -10.7277
ltibia 46.8667
lfoot 21.7801 -3.14427
ltoes -11.0871
283
root -28.7244 17.6988 -6.78225 -112.731 83.5681 -111.666
lowerback 1.05939 -1.996 5.49018
upperback 0.31754 -2.5792 1.01086
thorax -0.463416 -1.28564 -1.99193
lowerneck -6.17659 -0.593342 0.00702944
upperneck 8.44949 -1.0355 3.01779
head 3.87537 -0.356531 0.948084
rclavicle 3.50172e-014 -2.48481e-014
rhumerus -32.6412 -11.8711 -81.3637
rradius 23.2458
rwrist 3.62111
rhand -19.8866 -7.79985
rfingers 7.12502
rthumb 6.44928 -37.6817
lclavicle 3.50172e-014 -2.48481e-014
lhumerus -33.427 15.8657 78.7071
lradius 20.8701
lwrist 13.9793
lhand -18.034 11.7613
lfingers 7.12502
lthumb 8.23747 41.5807
rfemur -10.8077 2.08276 31.6732
rtibia 33.0019
rfoot -0.788539 -3.02323
rtoes -11.6662
lfemur 1.66395 4.88653 -10.5745
ltibia 47.9757
lfoot 19.5387 -2.92768
ltoes -12.4886
284
root -28.6445 17.6943 -6.78244 -112.681 83.4175 -111.432
lowerback 1.20797 -1.99312 5.69483
upperback 0.405102 -2.56418 1.03383
thorax -0.463335 -1.27589 -2.07888
lowerneck -6.16808 -0.609969 -0.0108389
upperneck 8.3457 -1.05668 3.04382
head 3.83779 -0.368077 0.958056
rclavicle 4.80053e-015 1.19271e-015
rhumerus -32.5659 -11.5135 -81.5785
rradius 23.5457
rwrist 3.24826
rhand -19.9271 -7.84013
rfingers 7.12502
rthumb 6.41019 -37.7231
lclavicle 4.80053e-015 1.19271e-015
lhumerus -33.2237 15.9266 78.7217
lradius 20.7896
lwrist 13.8531
lhand -18.0801 11.7066
lfingers 7.12502
lthumb 8.19306 41.5277
rfemur -10.2474 2.03058 31.8804
rtibia 32.8729
rfoot -0.865525 -3.05511
rtoes -11.8556
lfemur 0.571063 4.66508 -10.4195
ltibia 48.9892
lfoot 17.296 -2.56284
ltoes -13.9728
285
root -28.5661 17.6891 -6.78266 -112.574 83.2536 -111.157
lowerback 1.351 -1.9829 5.91402
upperback 0.48346 -2.5385 1.05848
thorax -0.46914 -1.26095 -2.17248
lowerneck -6.13219 -0.628136 -0.029751
upperneck 8.23352 -1.08001 3.0804
head 3.79209 -0.380484 0.971525
rclavicle -1.5537e-014 -6.55989e-015
rhumerus -32.515 -11.1897 -81.771
rradius 23.8208
rwrist 2.96066
rhand -19.968 -7.87737
rfingers 7.12502
rthumb 6.37072 -37.7616
lclavicle -1.5537e-014 -6.55989e-015
lhumerus -33.0333 15.9862 78.7313
lradius 20.7214
lwrist 13.7488
lhand -18.1113 11.6326
lfingers 7.12502
lthumb 8.16295 41.455
rfemur -9.71281 1.98035 32.0976
rtibia 32.7466
rfoot -0.934148 -3.08382
rtoes -11.8669
lfemur -0.542145 4.45301 -10.2615
ltibia 49.9093
lfoot 15.054 -2.08669
ltoes -15.5237
286
root -28.4892 17.6831 -6.78327 -112.383 83.0909 -110.808
lowerback 1.49665 -1.96913 6.13507
upperback 0.559178 -2.50704 1.08582
thorax -0.478371 -1.2431 -2.26442
lowerneck -6.10683 -0.641823 -0.0543732
upperneck 8.12575 -1.09745 3.12283
head 3.75014 -0.389777 0.988309
rclavicle 2.00974e-014 7.35503e-015
rhumerus -32.4669 -10.8783 -81.948
rradius 24.0656
rwrist 2.74388
rhand -20.004 -7.89711
rfingers 7.12502
rthumb 6.33595 -37.7824
lclavicle 2.00974e-014 7.35503e-015
lhumerus -32.8483 16.0545 78.743
lradius 20.6714
lwrist 13.6778
lhand -18.1402 11.5798
lfingers 7.12502
lthumb 8.13502 41.4032
rfemur -9.20659 1.92195 32.3118
rtibia 32.6366
rfoot -0.990731 -3.0993
rtoes -11.7707
lfemur -1.66404 4.25746 -10.1153
ltibia 50.7322
lfoot 12.8365 -1.51224
ltoes -17.1383
287
root -28.4139 17.6766 -6.78416 -112.163 82.9402 -110.446
lowerback 1.63983 -1.94739 6.34465
upperback 0.626518 -2.46442 1.1106
thorax -0.493237 -1.21993 -2.35292
lowerneck -6.08111 -0.658988 -0.0759638
upperneck 8.0293 -1.11989 3.16481
head 3.71227 -0.401283 1.00422
rclavicle 8.33731e-015 -1.25234e-014
rhumerus -32.4324 -10.5939 -82.1048
rradius 24.2798
rwrist 2.58656
rhand -20.0351 -7.92112
rfingers 7.12502
rthumb 6.30596 -37.8073
lclavicle 8.33731e-015 -1.25234e-014
lhumerus -32.6804 16.103 78.7624
lradius 20.6457
lwrist 13.6499
lhand -18.1552 11.5391
lfingers 7.12502
lthumb 8.12055 41.3631
rfemur -8.73883 1.84953 32.5113
rtibia 32.5565
rfoot -1.04056 -3.10577
rtoes -11.6145
lfemur -2.7953 4.07734 -9.9939
ltibia 51.4524
lfoot 10.6929 -0.866365
ltoes -18.5937
288
root -28.3401 17.6695 -6.78531 -111.835 82.8052 -109.996
lowerback 1.78024 -1.91986 6.54038
upperback 0.688366 -2.41376 1.13513
thorax -0.510612 -1.19287 -2.43434
lowerneck -6.07818 -0.673608 -0.0952717
upperneck 7.95516 -1.13943 3.20219
head 3.68666 -0.411019 1.01855
rclavicle 2.88331e-014 -1.78906e-015
rhumerus -32.3967 -10.3277 -82.2465
rradius 24.4596
rwrist 2.48637
rhand -20.0518 -7.9414
rfingers 7.12502
rthumb 6.28985 -37.828
lclavicle 2.88331e-014 -1.78906e-015
lhumerus -32.5248 16.1365 78.7916
lradius 20.6463
lwrist 13.6694
lhand -18.1644 11.5163
lfingers 7.12502
lthumb 8.11171 41.3406
rfemur -8.31947 1.77193 32.6996
rtibia 32.5177
rfoot -1.08451 -3.11083
rtoes -11.4814
lfemur -3.9311 3.92217 -9.89544
ltibia 52.0619
lfoot 8.63939 -0.1927
ltoes -19.8814
